<?xml version="1.0" encoding="UTF-8"?>
<svg width="95px" height="14px" viewBox="0 0 95 14" version="1.1" xmlns="http://www.w3.org/2000/svg" xmlns:xlink="http://www.w3.org/1999/xlink">
    <!-- Generator: Sketch 63.1 (92452) - https://sketch.com -->
    <title>Monoceros</title>
    <desc>Created with Sketch.</desc>
    <g id="Devices" stroke="none" stroke-width="1" fill="none" fill-rule="evenodd">
        <g id="Artboard" transform="translate(-521.000000, -90.000000)" fill="#FFFFFF" fill-rule="nonzero">
            <path d="M522.538,103 L522.538,94.612 L522.322,92.92 L522.412,92.92 L523.24,94.45 L525.166,97.546 L525.616,97.546 L527.452,94.468 L528.316,92.92 L528.406,92.92 L528.226,94.63 L528.226,103 L529.72,103 L529.72,90.4 L528.37,90.4 L525.49,95.188 L525.454,95.188 L522.466,90.4 L521.08,90.4 L521.08,103 L522.538,103 Z M536.2,103.216 C536.896,103.216 537.517,103.105 538.063,102.883 C538.609,102.661 539.068,102.346 539.44,101.938 C539.812,101.53 540.094,101.035 540.286,100.453 C540.478,99.871 540.574,99.22 540.574,98.5 C540.574,97.84 540.487,97.222 540.313,96.646 C540.139,96.07 539.872,95.572 539.512,95.152 C539.152,94.732 538.699,94.399 538.153,94.153 C537.607,93.907 536.956,93.784 536.2,93.784 C534.796,93.784 533.716,94.207 532.96,95.053 C532.204,95.899 531.826,97.048 531.826,98.5 C531.826,99.16 531.913,99.778 532.087,100.354 C532.261,100.93 532.528,101.428 532.888,101.848 C533.248,102.268 533.704,102.601 534.256,102.847 C534.808,103.093 535.456,103.216 536.2,103.216 Z M536.2,102.01 C535.672,102.01 535.225,101.908 534.859,101.704 C534.493,101.5 534.196,101.23 533.968,100.894 C533.74,100.558 533.575,100.18 533.473,99.76 C533.371,99.34 533.32,98.92 533.32,98.5 C533.32,97.336 533.56,96.46 534.04,95.872 C534.52,95.284 535.24,94.99 536.2,94.99 C536.728,94.99 537.175,95.092 537.541,95.296 C537.907,95.5 538.207,95.77 538.441,96.106 C538.675,96.442 538.843,96.817 538.945,97.231 C539.047,97.645 539.098,98.068 539.098,98.5 C539.098,99.652 538.855,100.525 538.369,101.119 C537.883,101.713 537.16,102.01 536.2,102.01 Z M544.66,103 L544.66,97.348 C544.744,97.048 544.876,96.763 545.056,96.493 C545.236,96.223 545.446,95.986 545.686,95.782 C545.926,95.578 546.193,95.413 546.487,95.287 C546.781,95.161 547.084,95.098 547.396,95.098 C548.248,95.098 548.836,95.35 549.16,95.854 C549.484,96.358 549.646,97.108 549.646,98.104 L549.646,98.104 L549.646,103 L551.05,103 L551.05,97.834 C551.05,97.03 550.978,96.367 550.834,95.845 C550.69,95.323 550.477,94.909 550.195,94.603 C549.913,94.297 549.559,94.084 549.133,93.964 C548.707,93.844 548.218,93.784 547.666,93.784 C547.306,93.784 546.964,93.832 546.64,93.928 C546.316,94.024 546.022,94.153 545.758,94.315 C545.494,94.477 545.263,94.657 545.065,94.855 C544.867,95.053 544.708,95.254 544.588,95.458 L544.588,95.458 L544.498,95.458 L544.336,94 L541.924,94 L541.924,95.17 L543.13,95.17 C543.154,95.302 543.175,95.458 543.193,95.638 C543.211,95.818 543.226,96.001 543.238,96.187 C543.25,96.373 543.259,96.553 543.265,96.727 C543.271,96.901 543.274,97.042 543.274,97.15 L543.274,97.15 L543.274,103 L544.66,103 Z M557.8,103.216 C558.496,103.216 559.117,103.105 559.663,102.883 C560.209,102.661 560.668,102.346 561.04,101.938 C561.412,101.53 561.694,101.035 561.886,100.453 C562.078,99.871 562.174,99.22 562.174,98.5 C562.174,97.84 562.087,97.222 561.913,96.646 C561.739,96.07 561.472,95.572 561.112,95.152 C560.752,94.732 560.299,94.399 559.753,94.153 C559.207,93.907 558.556,93.784 557.8,93.784 C556.396,93.784 555.316,94.207 554.56,95.053 C553.804,95.899 553.426,97.048 553.426,98.5 C553.426,99.16 553.513,99.778 553.687,100.354 C553.861,100.93 554.128,101.428 554.488,101.848 C554.848,102.268 555.304,102.601 555.856,102.847 C556.408,103.093 557.056,103.216 557.8,103.216 Z M557.8,102.01 C557.272,102.01 556.825,101.908 556.459,101.704 C556.093,101.5 555.796,101.23 555.568,100.894 C555.34,100.558 555.175,100.18 555.073,99.76 C554.971,99.34 554.92,98.92 554.92,98.5 C554.92,97.336 555.16,96.46 555.64,95.872 C556.12,95.284 556.84,94.99 557.8,94.99 C558.328,94.99 558.775,95.092 559.141,95.296 C559.507,95.5 559.807,95.77 560.041,96.106 C560.275,96.442 560.443,96.817 560.545,97.231 C560.647,97.645 560.698,98.068 560.698,98.5 C560.698,99.652 560.455,100.525 559.969,101.119 C559.483,101.713 558.76,102.01 557.8,102.01 Z M569.032,103.216 C569.5,103.216 569.935,103.174 570.337,103.09 C570.739,103.006 571.105,102.895 571.435,102.757 C571.765,102.619 572.056,102.472 572.308,102.316 C572.56,102.16 572.77,102.01 572.938,101.866 L572.938,101.866 L572.308,100.822 C571.948,101.134 571.501,101.386 570.967,101.578 C570.433,101.77 569.884,101.866 569.32,101.866 C568.792,101.866 568.309,101.788 567.871,101.632 C567.433,101.476 567.058,101.254 566.746,100.966 C566.434,100.678 566.194,100.327 566.026,99.913 C565.858,99.499 565.774,99.028 565.774,98.5 C565.774,97.3 566.062,96.424 566.638,95.872 C567.214,95.32 568.09,95.044 569.266,95.044 C569.578,95.044 569.893,95.077 570.211,95.143 C570.529,95.209 570.826,95.29 571.102,95.386 L571.102,95.386 L571.102,97.096 L572.398,97.096 L572.398,94.594 L572.416,94.54 C572.032,94.348 571.561,94.174 571.003,94.018 C570.445,93.862 569.722,93.784 568.834,93.784 C568.138,93.784 567.508,93.889 566.944,94.099 C566.38,94.309 565.9,94.612 565.504,95.008 C565.108,95.404 564.805,95.896 564.595,96.484 C564.385,97.072 564.28,97.744 564.28,98.5 C564.28,99.208 564.382,99.853 564.586,100.435 C564.79,101.017 565.09,101.515 565.486,101.929 C565.882,102.343 566.377,102.661 566.971,102.883 C567.565,103.105 568.252,103.216 569.032,103.216 Z M579.562,103.216 C579.946,103.216 580.327,103.183 580.705,103.117 C581.083,103.051 581.446,102.958 581.794,102.838 C582.142,102.718 582.463,102.574 582.757,102.406 C583.051,102.238 583.306,102.058 583.522,101.866 L583.522,101.866 L582.964,100.84 C582.844,100.948 582.673,101.068 582.451,101.2 C582.229,101.332 581.974,101.452 581.686,101.56 C581.398,101.668 581.095,101.761 580.777,101.839 C580.459,101.917 580.138,101.956 579.814,101.956 C578.842,101.956 578.065,101.689 577.483,101.155 C576.901,100.621 576.61,99.814 576.61,98.734 L576.61,98.734 L583.576,98.734 C583.636,97.714 583.564,96.883 583.36,96.241 C583.156,95.599 582.865,95.095 582.487,94.729 C582.109,94.363 581.674,94.114 581.182,93.982 C580.69,93.85 580.192,93.784 579.688,93.784 C578.992,93.784 578.362,93.889 577.798,94.099 C577.234,94.309 576.754,94.612 576.358,95.008 C575.962,95.404 575.659,95.896 575.449,96.484 C575.239,97.072 575.134,97.744 575.134,98.5 C575.134,99.22 575.23,99.868 575.422,100.444 C575.614,101.02 575.896,101.515 576.268,101.929 C576.64,102.343 577.102,102.661 577.654,102.883 C578.206,103.105 578.842,103.216 579.562,103.216 Z M582.262,97.474 L576.664,97.474 C576.712,97.006 576.823,96.613 576.997,96.295 C577.171,95.977 577.393,95.719 577.663,95.521 C577.933,95.323 578.245,95.182 578.599,95.098 C578.953,95.014 579.328,94.972 579.724,94.972 C580.456,94.972 581.047,95.191 581.497,95.629 C581.947,96.067 582.202,96.682 582.262,97.474 L582.262,97.474 Z M593.26,103 L593.26,101.794 L589.804,101.794 L589.804,96.484 C589.876,96.376 589.99,96.244 590.146,96.088 C590.302,95.932 590.491,95.776 590.713,95.62 C590.935,95.464 591.196,95.332 591.496,95.224 C591.796,95.116 592.132,95.062 592.504,95.062 C592.9,95.062 593.173,95.242 593.323,95.602 C593.473,95.962 593.548,96.526 593.548,97.294 L593.548,97.294 L594.808,97.276 C594.808,96.736 594.784,96.253 594.736,95.827 C594.688,95.401 594.595,95.038 594.457,94.738 C594.319,94.438 594.127,94.21 593.881,94.054 C593.635,93.898 593.308,93.82 592.9,93.82 C592.204,93.82 591.604,93.952 591.1,94.216 C590.596,94.48 590.14,94.798 589.732,95.17 L589.732,95.17 L589.642,95.17 L589.354,94 L585.988,94 L585.988,95.206 L588.418,95.206 L588.418,101.794 L585.988,101.794 L585.988,103 L593.26,103 Z M601,103.216 C601.696,103.216 602.317,103.105 602.863,102.883 C603.409,102.661 603.868,102.346 604.24,101.938 C604.612,101.53 604.894,101.035 605.086,100.453 C605.278,99.871 605.374,99.22 605.374,98.5 C605.374,97.84 605.287,97.222 605.113,96.646 C604.939,96.07 604.672,95.572 604.312,95.152 C603.952,94.732 603.499,94.399 602.953,94.153 C602.407,93.907 601.756,93.784 601,93.784 C599.596,93.784 598.516,94.207 597.76,95.053 C597.004,95.899 596.626,97.048 596.626,98.5 C596.626,99.16 596.713,99.778 596.887,100.354 C597.061,100.93 597.328,101.428 597.688,101.848 C598.048,102.268 598.504,102.601 599.056,102.847 C599.608,103.093 600.256,103.216 601,103.216 Z M601,102.01 C600.472,102.01 600.025,101.908 599.659,101.704 C599.293,101.5 598.996,101.23 598.768,100.894 C598.54,100.558 598.375,100.18 598.273,99.76 C598.171,99.34 598.12,98.92 598.12,98.5 C598.12,97.336 598.36,96.46 598.84,95.872 C599.32,95.284 600.04,94.99 601,94.99 C601.528,94.99 601.975,95.092 602.341,95.296 C602.707,95.5 603.007,95.77 603.241,96.106 C603.475,96.442 603.643,96.817 603.745,97.231 C603.847,97.645 603.898,98.068 603.898,98.5 C603.898,99.652 603.655,100.525 603.169,101.119 C602.683,101.713 601.96,102.01 601,102.01 Z M611.764,103.216 C613.072,103.216 614.053,102.946 614.707,102.406 C615.361,101.866 615.688,101.182 615.688,100.354 C615.688,99.802 615.538,99.364 615.238,99.04 C614.938,98.716 614.566,98.458 614.122,98.266 C613.678,98.074 613.195,97.927 612.673,97.825 C612.151,97.723 611.668,97.615 611.224,97.501 C610.78,97.387 610.408,97.246 610.108,97.078 C609.808,96.91 609.658,96.67 609.658,96.358 C609.658,96.106 609.721,95.893 609.847,95.719 C609.973,95.545 610.141,95.404 610.351,95.296 C610.561,95.188 610.795,95.107 611.053,95.053 C611.311,94.999 611.572,94.972 611.836,94.972 C612.532,94.972 613.111,95.071 613.573,95.269 C614.035,95.467 614.464,95.674 614.86,95.89 L614.86,95.89 L615.436,94.756 C615.076,94.528 614.593,94.309 613.987,94.099 C613.381,93.889 612.658,93.784 611.818,93.784 C611.35,93.784 610.9,93.835 610.468,93.937 C610.036,94.039 609.658,94.195 609.334,94.405 C609.01,94.615 608.749,94.882 608.551,95.206 C608.353,95.53 608.254,95.92 608.254,96.376 C608.254,96.928 608.404,97.357 608.704,97.663 C609.004,97.969 609.376,98.212 609.82,98.392 C610.264,98.572 610.747,98.716 611.269,98.824 C611.791,98.932 612.274,99.049 612.718,99.175 C613.162,99.301 613.534,99.469 613.834,99.679 C614.134,99.889 614.284,100.186 614.284,100.57 C614.284,100.834 614.221,101.059 614.095,101.245 C613.969,101.431 613.798,101.581 613.582,101.695 C613.366,101.809 613.117,101.893 612.835,101.947 C612.553,102.001 612.25,102.028 611.926,102.028 C611.59,102.028 611.257,101.992 610.927,101.92 C610.597,101.848 610.288,101.752 610,101.632 C609.712,101.512 609.448,101.377 609.208,101.227 C608.968,101.077 608.776,100.93 608.632,100.786 L608.632,100.786 L607.912,101.956 C608.092,102.112 608.32,102.265 608.596,102.415 C608.872,102.565 609.178,102.7 609.514,102.82 C609.85,102.94 610.21,103.036 610.594,103.108 C610.978,103.18 611.368,103.216 611.764,103.216 Z" id="Monoceros"></path>
        </g>
    </g>
</svg>